<svg width="16" height="16" viewBox="0 0 16 16" fill="none" xmlns="http://www.w3.org/2000/svg">
<g id="Camera" clip-path="url(#clip0_201_96)">
<path id="Vector" fill-rule="evenodd" clip-rule="evenodd" d="M11.9 12H4.1C3.8 12 3.5 11.7 3.5 11.4V5.7C3.5 5.4 3.8 5.1 4.1 5.1H5.5L5.8 4.5C5.8 4.6 6 4 6.3 4H9.7C10 4 10.3 4.6 10.3 4.6L10.6 5.2H12C12.3 5.2 12.6 5.5 12.6 5.8V11.5C12.5 11.7 12.2 12 11.9 12ZM11.9 6C11.9 5.8 11.8 5.7 11.6 5.7H10.2C10.2 5.7 10.2 5.7 10.2 5.6L9.8 4.9C9.8 4.9 9.6 4.5 9.4 4.5H6.7C6.5 4.5 6.2 4.9 6.2 4.9L5.8 5.6C5.8 5.6 5.8 5.6 5.8 5.7H4.3C4.2 5.7 4.1 5.8 4.1 6V11.1C4.1 11.3 4.2 11.4 4.4 11.4H11.7C11.9 11.4 12 11.3 12 11.1V6H11.9ZM8 10.9C6.8 10.9 5.8 9.9 5.8 8.6C5.8 7.3 6.8 6.3 8 6.3C9.2 6.3 10.2 7.3 10.2 8.6C10.2 9.8 9.2 10.9 8 10.9ZM8 6.9C7.1 6.9 6.3 7.7 6.3 8.6C6.3 9.5 7.1 10.3 8 10.3C8.9 10.3 9.7 9.5 9.7 8.6C9.7 7.6 8.9 6.9 8 6.9Z" fill="#23263B"/>
<g id="Group">
<path id="Vector_2" d="M14.5 11.7H16V13.9C16 15.1 15 16.1 13.8 16.1H10.6V14.7H13.8C14.2 14.7 14.5 14.4 14.5 14V11.7Z" fill="#23263B"/>
<path id="Vector_3" d="M16 2.2V4.4H14.5V2.2C14.5 1.8 14.2 1.5 13.8 1.5H10.6V0H13.8C15 0 16 1 16 2.2Z" fill="#23263B"/>
<path id="Vector_4" d="M2.2 14.6H5.4V16H2.2C1 16 0 15 0 13.8V11.6H1.5V13.8C1.5 14.2 1.8 14.6 2.2 14.6Z" fill="#23263B"/>
<path id="Vector_5" d="M2.2 0H5.4V1.4H2.2C1.8 1.4 1.5 1.7 1.5 2.1V4.3H0V2.2C0 1 1 0 2.2 0Z" fill="#23263B"/>
</g>
</g>
<defs>
<clipPath id="clip0_201_96">
<rect width="16" height="16" fill="white"/>
</clipPath>
</defs>
</svg>
