<svg width="24" height="24" viewBox="0 0 24 24" fill="none" xmlns="http://www.w3.org/2000/svg">
<g id="Favorite" clip-path="url(#clip0_1_36)">
<path id="Vector" d="M16.5001 3C14.7601 3 13.0901 3.81 12.0001 5.09C10.9101 3.81 9.24006 3 7.50006 3C4.42006 3 2.00006 5.42 2.00006 8.5C2.00006 12.28 5.40006 15.36 10.5501 20.04L12.0001 21.35L13.4501 20.03C18.6001 15.36 22.0001 12.28 22.0001 8.5C22.0001 5.42 19.5801 3 16.5001 3ZM12.1001 18.55L12.0001 18.65L11.9001 18.55C7.14006 14.24 4.00006 11.39 4.00006 8.5C4.00006 6.5 5.50006 5 7.50006 5C9.04006 5 10.5401 5.99 11.0701 7.36H12.9401C13.4601 5.99 14.9601 5 16.5001 5C18.5001 5 20.0001 6.5 20.0001 8.5C20.0001 11.39 16.8601 14.24 12.1001 18.55Z" fill="#23263B"/>
</g>
<defs>
<clipPath id="clip0_1_36">
<rect width="24" height="24" fill="white"/>
</clipPath>
</defs>
</svg>
