<svg width="24" height="24" viewBox="0 0 24 24" fill="none" xmlns="http://www.w3.org/2000/svg">
<g id="Pin">
<path id="Vector" d="M12.0001 4C13.9301 4 17.0001 5.4 17.0001 9.15C17.0001 11.31 15.2801 13.82 12.0001 16.47C8.72009 13.82 7.00009 11.3 7.00009 9.15C7.00009 5.4 10.0701 4 12.0001 4ZM12.0001 2C8.73009 2 5.00009 4.46 5.00009 9.15C5.00009 12.27 7.33009 15.56 12.0001 19C16.6701 15.56 19.0001 12.27 19.0001 9.15C19.0001 4.46 15.2701 2 12.0001 2Z" fill="#23263B"/>
<path id="Vector_2" d="M12.0001 7C10.9001 7 10.0001 7.9 10.0001 9C10.0001 10.1 10.9001 11 12.0001 11C12.5305 11 13.0392 10.7893 13.4143 10.4142C13.7894 10.0391 14.0001 9.53043 14.0001 9C14.0001 8.46957 13.7894 7.96086 13.4143 7.58579C13.0392 7.21071 12.5305 7 12.0001 7V7ZM5.00009 20H19.0001V22H5.00009V20Z" fill="#23263B"/>
</g>
</svg>
