<svg width="16" height="16" viewBox="0 0 16 16" fill="none" xmlns="http://www.w3.org/2000/svg">
<g id="24px 4" clip-path="url(#clip0_201_91)">
<path id="Vector" d="M8 9.21053C9.18571 9.21053 10.1429 8.29368 10.1429 7.1579V3.05263C10.1429 1.91684 9.18571 1 8 1C6.81429 1 5.85714 1.91684 5.85714 3.05263V7.1579C5.85714 8.29368 6.81429 9.21053 8 9.21053ZM7.28571 3.05263C7.28571 2.67632 7.60714 2.36842 8 2.36842C8.39286 2.36842 8.71429 2.67632 8.71429 3.05263V7.1579C8.71429 7.53421 8.39286 7.84211 8 7.84211C7.60714 7.84211 7.28571 7.53421 7.28571 7.1579V3.05263ZM11.5714 7.1579C11.5714 9.04632 9.97143 10.5789 8 10.5789C6.02857 10.5789 4.42857 9.04632 4.42857 7.1579H3C3 9.57316 4.86429 11.5574 7.28571 11.8926V14H8.71429V11.8926C11.1357 11.5574 13 9.57316 13 7.1579H11.5714Z" fill="#23263B"/>
</g>
<defs>
<clipPath id="clip0_201_91">
<rect width="16" height="16" fill="white"/>
</clipPath>
</defs>
</svg>
