<svg width="24" height="24" viewBox="0 0 24 24" fill="none" xmlns="http://www.w3.org/2000/svg">
<g id="24px 2">
<path id="Vector" d="M18.2222 13.2273V16.6818H16.4444V13.2273H18.2222ZM7.55556 13.2273V16.6818H6.66667C6.17778 16.6818 5.77778 16.2932 5.77778 15.8182V13.2273H7.55556ZM12 2C7.58222 2 4 5.48045 4 9.77273V15.8182C4 17.2518 5.19111 18.4091 6.66667 18.4091H9.33333V11.5H5.77778V9.77273C5.77778 6.43045 8.56 3.72727 12 3.72727C15.44 3.72727 18.2222 6.43045 18.2222 9.77273V11.5H14.6667V18.4091H18.2222V19.2727H12V21H17.3333C18.8089 21 20 19.8427 20 18.4091V9.77273C20 5.48045 16.4178 2 12 2Z" fill="#23263B"/>
</g>
</svg>
