<?xml version="1.0" standalone="no"?>
<!DOCTYPE svg PUBLIC "-//W3C//DTD SVG 20010904//EN"
 "http://www.w3.org/TR/2001/REC-SVG-20010904/DTD/svg10.dtd">
<svg version="1.0" xmlns="http://www.w3.org/2000/svg"
 width="1616.000000pt" height="1616.000000pt" viewBox="0 0 1616.000000 1616.000000"
 preserveAspectRatio="xMidYMid meet">
<metadata>
Created by potrace 1.14, written by Peter Selinger 2001-2017
</metadata>
<g transform="translate(0.000000,1616.000000) scale(0.100000,-0.100000)"
fill="#000000" stroke="none">
<path d="M1540 10597 c-3 -3 -23 -8 -45 -11 -107 -16 -179 -44 -336 -132 -59
-33 -214 -180 -245 -232 -10 -18 -22 -32 -26 -32 -4 0 -8 -7 -8 -15 0 -8 -3
-15 -8 -15 -4 0 -16 -20 -27 -45 -11 -25 -23 -45 -26 -45 -3 0 -12 -19 -18
-42 -7 -24 -17 -47 -21 -53 -9 -12 -38 -127 -46 -184 -3 -23 -7 -50 -8 -59 -3
-15 -30 -17 -304 -19 -281 -2 -304 -3 -341 -23 -22 -11 -49 -30 -61 -42 -20
-22 -20 -26 -20 -1614 l0 -1593 21 -35 c12 -20 24 -36 27 -36 4 0 21 -14 39
-30 18 -17 34 -30 37 -30 2 0 17 -5 33 -12 87 -35 183 -30 273 17 16 8 111 97
212 197 101 101 197 192 213 203 29 19 49 20 1020 21 891 1 1051 4 1074 19 4
2 19 6 32 8 71 13 201 97 267 172 17 20 32 39 32 41 0 1 11 19 25 39 24 36 62
127 73 175 4 14 6 557 7 1207 l0 1181 -31 42 c-29 41 -92 85 -124 88 -8 1
-147 2 -307 2 -161 1 -293 5 -294 8 0 4 -2 21 -4 37 -6 64 -16 115 -25 139 -5
15 -7 26 -5 26 3 0 -4 18 -15 40 -11 22 -18 40 -16 40 18 0 -107 212 -150 255
-13 14 -23 25 -21 25 8 0 -68 74 -113 111 -91 73 -259 163 -327 175 -15 2 -35
7 -43 10 -8 4 -26 9 -40 11 -35 7 -324 16 -330 10z m260 -350 c8 -2 29 -7 45
-11 17 -4 64 -24 105 -44 108 -53 213 -159 269 -272 23 -47 44 -99 46 -115 2
-17 6 -44 9 -61 l6 -32 -588 0 c-323 -1 -595 1 -604 4 -9 3 -15 10 -13 17 3 7
7 26 9 42 8 46 49 155 58 155 4 0 8 6 8 13 0 16 54 90 100 137 79 80 190 141
301 164 56 12 206 14 249 3z m1241 -886 c8 -2 4 -105 -5 -119 -4 -7 -4 -12 1
-12 9 0 9 -1932 0 -1965 -12 -47 -28 -76 -61 -110 -71 -73 1 -68 -1101 -71
-545 -1 -992 -3 -995 -4 -3 -1 -8 -2 -13 -1 -22 4 -110 -26 -171 -57 -53 -28
-102 -68 -219 -184 -82 -81 -153 -148 -158 -148 -10 0 -9 2652 1 2665 6 7 467
10 1362 9 744 -1 1356 -2 1359 -3z"/>
<path d="M2268 8770 c-31 -19 -128 -108 -128 -118 -1 -4 -19 -20 -40 -37 -21
-16 -39 -35 -40 -42 0 -6 -9 -15 -20 -18 -11 -3 -20 -10 -20 -14 0 -9 -109
-120 -119 -122 -3 0 -28 -27 -56 -59 -27 -32 -54 -59 -60 -60 -5 0 -23 -19
-40 -40 -16 -21 -35 -39 -42 -40 -6 0 -15 -9 -18 -20 -3 -11 -12 -20 -18 -21
-7 0 -34 -27 -62 -59 -27 -32 -54 -59 -59 -59 -6 -1 -107 95 -225 213 -119
117 -225 218 -237 224 -29 15 -108 9 -139 -12 -35 -23 -64 -89 -58 -130 8 -53
27 -76 191 -238 87 -87 157 -160 154 -163 -3 -3 -1 -5 5 -5 6 0 59 -49 119
-109 131 -131 170 -148 244 -110 36 18 836 817 858 856 17 31 15 84 -3 121
-32 63 -131 97 -187 62z"/>
<path d="M7950 9169 c-25 -4 -54 -10 -65 -12 -72 -16 -85 -20 -85 -28 0 -5 -3
-8 -7 -7 -42 9 -207 -121 -249 -195 -48 -84 -73 -149 -77 -199 -1 -10 -4 -18
-8 -18 -7 0 -4 -167 4 -215 8 -44 41 -128 70 -177 28 -47 111 -138 125 -138 6
0 12 -7 16 -15 3 -8 12 -15 21 -15 8 0 15 -5 15 -11 0 -5 4 -8 9 -5 5 3 14 0
20 -8 6 -7 43 -23 83 -36 40 -12 80 -26 88 -29 8 -4 69 -6 135 -6 151 3 178 8
288 57 37 17 67 35 67 39 0 5 5 9 11 9 15 0 99 84 99 99 0 6 -3 11 -8 11 -4 0
-28 19 -52 43 -25 23 -64 59 -88 79 l-42 38 -29 -28 c-44 -41 -74 -62 -88 -62
-7 0 -13 -4 -13 -8 0 -5 -6 -9 -12 -10 -7 0 -29 -5 -48 -9 -40 -10 -132 -9
-158 3 -9 4 -19 8 -22 9 -65 22 -128 81 -159 150 -18 39 -23 68 -24 130 0 91
3 106 34 166 64 127 210 180 365 133 47 -15 74 -32 130 -84 12 -11 24 -20 27
-20 2 0 29 24 60 53 31 28 72 66 92 84 19 18 35 36 35 41 0 14 -99 95 -150
124 -38 21 -98 45 -135 54 -5 2 -21 6 -35 9 -40 10 -191 12 -240 4z"/>
<path d="M12228 9175 c-2 -2 -21 -6 -43 -8 -48 -6 -71 -12 -107 -26 -16 -6
-28 -8 -28 -5 0 3 -7 -2 -16 -10 -8 -9 -19 -14 -24 -11 -4 3 -13 -2 -20 -10
-7 -8 -16 -12 -21 -9 -5 3 -9 0 -9 -5 0 -6 -4 -11 -10 -11 -5 0 -22 -10 -37
-22 -39 -33 -114 -108 -108 -108 3 0 -8 -18 -24 -41 -16 -22 -33 -53 -36 -70
-4 -16 -11 -29 -17 -29 -6 0 -9 -3 -5 -6 3 -3 2 -17 -3 -29 -5 -13 -12 -47
-15 -76 -3 -28 -7 -54 -7 -58 -5 -16 14 -176 21 -185 4 -6 13 -30 20 -54 17
-59 85 -155 146 -206 46 -39 103 -79 115 -82 3 0 17 -6 31 -11 48 -21 127 -41
133 -36 3 4 6 2 6 -4 0 -12 220 -10 275 2 17 3 36 7 43 7 6 1 12 4 12 8 0 4 7
7 15 7 31 0 145 67 196 116 l52 50 -39 35 c-21 19 -65 58 -98 88 l-58 54 -48
-43 c-57 -51 -134 -80 -211 -80 -60 0 -149 21 -149 35 0 4 -6 8 -14 8 -21 0
-86 72 -106 118 -18 41 -41 158 -32 166 2 3 6 23 7 46 2 23 9 48 15 56 7 7 10
14 6 14 -8 0 22 47 53 83 50 56 146 93 231 89 44 -2 55 -5 104 -21 43 -15 51
-20 102 -69 42 -39 37 -40 129 46 22 20 55 48 72 61 38 31 32 50 -34 101 -25
19 -50 40 -57 45 -13 12 -71 38 -72 33 0 -1 -7 2 -15 9 -12 10 -63 26 -124 40
-25 5 -193 12 -197 8z"/>
<path d="M13348 9175 c-2 -2 -21 -5 -43 -8 -83 -11 -209 -61 -252 -100 -13
-11 -23 -18 -23 -14 0 9 -58 -51 -103 -105 -20 -24 -34 -48 -30 -51 3 -4 2 -7
-4 -7 -9 0 -26 -33 -38 -72 -1 -5 -4 -10 -5 -13 -1 -3 -3 -8 -5 -12 -1 -5 -4
-15 -8 -23 -18 -47 -24 -184 -12 -255 9 -53 33 -123 52 -152 9 -13 12 -23 8
-23 -3 0 1 -7 9 -16 9 -8 16 -22 16 -30 0 -8 5 -12 10 -9 6 3 10 1 10 -6 0
-27 175 -169 208 -169 5 0 22 -6 38 -14 57 -28 155 -44 258 -41 128 3 193 18
289 66 60 31 177 127 177 146 0 3 10 14 22 24 11 11 17 19 13 19 -4 0 -1 8 8
18 9 10 29 49 43 87 25 62 28 84 28 190 0 130 0 132 -32 215 -3 8 -6 17 -7 20
-4 13 -30 66 -35 70 -3 3 -21 25 -40 50 -103 133 -263 208 -456 215 -51 1 -94
2 -96 0z m122 -259 c89 -10 166 -69 208 -157 24 -51 29 -73 30 -142 0 -69 -4
-91 -27 -142 -36 -77 -93 -133 -156 -152 -154 -46 -284 3 -365 138 -23 38 -37
147 -28 207 16 99 83 194 157 224 14 6 35 14 46 19 24 10 64 16 85 12 8 -1 31
-4 50 -7z"/>
<path d="M10457 9164 c-2 -3 -15 -7 -28 -9 -20 -4 -69 -26 -128 -59 -25 -13
-78 -96 -89 -139 -17 -61 -6 -133 29 -195 17 -31 37 -62 45 -70 19 -18 19 -17
-23 -43 -21 -13 -44 -29 -50 -35 -7 -7 -23 -21 -36 -31 -52 -42 -95 -135 -98
-213 -2 -57 32 -160 53 -160 6 0 9 -3 5 -6 -18 -18 145 -123 196 -127 9 -1 17
-4 17 -7 0 -15 237 -20 295 -6 78 18 105 28 167 61 l68 35 52 -50 c29 -28 56
-50 61 -50 5 0 25 19 45 42 20 23 54 60 74 82 21 23 38 44 38 47 0 8 -43 51
-80 80 -25 21 -32 59 -10 59 5 0 16 21 26 48 10 26 21 52 25 57 3 6 10 26 14
45 4 19 12 40 17 47 7 9 2 14 -19 19 -15 4 -32 9 -38 13 -5 3 -14 6 -20 7 -14
2 -116 34 -141 44 -19 8 -22 4 -28 -30 -3 -21 -14 -56 -23 -79 l-18 -41 -50
46 c-27 25 -60 53 -72 61 -31 21 -29 40 7 58 26 14 98 80 125 116 15 20 37 98
30 109 -3 5 -1 11 5 15 6 4 8 11 4 16 -3 5 -7 23 -9 39 -2 16 -11 42 -19 57
-19 37 -70 93 -84 93 -7 0 -12 3 -12 8 0 4 -24 16 -52 27 -38 13 -83 20 -160
21 -58 1 -109 0 -111 -2z m175 -211 c41 -37 1 -128 -64 -149 -10 -3 -18 -10
-18 -16 0 -16 -49 32 -64 62 -11 23 -13 35 -8 81 5 43 114 58 154 22z m-116
-470 c22 -21 71 -65 107 -97 37 -32 67 -62 67 -67 0 -6 -21 -16 -50 -24 -3 -1
-13 -5 -22 -9 -27 -12 -108 -13 -151 -3 -54 14 -97 59 -97 103 0 41 13 69 49
106 35 36 49 35 97 -9z"/>
<path d="M4716 9150 c-3 -5 0 -1044 3 -1067 1 -8 43 -11 151 -11 l150 1 1 36
c0 20 0 82 -1 139 0 56 3 103 7 103 4 1 69 3 143 4 74 2 135 4 135 5 0 2 9 4
20 5 105 14 206 63 271 131 65 67 95 161 89 277 -4 96 -5 98 -34 158 -44 93
-168 186 -270 204 -19 3 -39 9 -45 12 -12 8 -616 11 -620 3z m544 -243 c84
-22 119 -72 116 -165 -3 -59 -26 -99 -72 -121 -38 -19 -50 -21 -174 -23 l-105
-3 -2 160 -1 160 111 -2 c62 -1 119 -4 127 -6z"/>
<path d="M5843 9146 c-4 -6 -8 -943 -4 -1053 1 -22 3 -22 154 -20 l152 2 0
140 1 140 29 0 c17 0 35 4 42 8 6 4 14 3 17 -2 3 -5 15 -7 26 -4 22 6 75 -5
67 -14 -3 -3 -2 -10 4 -17 24 -28 77 -105 99 -141 13 -22 27 -42 30 -45 3 -3
16 -19 28 -37 l22 -32 160 1 c88 0 160 2 160 4 0 9 -103 159 -112 162 -4 2 -8
9 -8 14 0 6 -18 35 -40 64 -22 29 -40 58 -40 64 0 5 -4 10 -10 10 -24 0 -6 27
33 51 59 36 113 104 137 175 21 61 33 201 18 210 -4 3 -6 9 -4 13 7 11 -15 70
-46 123 -30 51 -87 104 -140 130 -109 54 -159 60 -481 62 -166 1 -291 -2 -294
-8z m543 -240 c37 -9 94 -47 94 -63 0 -7 5 -13 11 -13 5 0 8 -4 4 -9 -3 -5 -2
-12 3 -14 13 -9 5 -92 -12 -128 -18 -39 -56 -65 -106 -74 -19 -3 -36 -8 -39
-10 -2 -2 -12 0 -22 6 -11 5 -19 6 -19 2 0 -12 -150 -10 -151 2 -1 5 -2 76 -3
157 -1 122 1 148 13 150 28 6 199 1 227 -6z"/>
<path d="M6989 9145 c-4 -27 -6 -1042 -2 -1057 3 -15 22 -16 153 -16 l150 1 0
538 c0 297 -3 540 -7 540 -46 7 -293 2 -294 -6z"/>
<path d="M8654 9151 c-2 -2 -4 -246 -4 -542 l0 -537 434 0 c359 0 436 2 440
14 3 7 1 16 -5 19 -5 4 -7 10 -4 15 8 13 9 165 1 178 -5 9 -82 12 -285 12
l-278 0 1 98 1 97 225 1 c124 1 232 2 240 3 13 1 16 17 14 104 -1 56 -2 107
-3 113 -1 7 -76 10 -232 9 -126 0 -234 2 -238 5 -4 3 -7 44 -7 91 l0 86 245 1
c135 0 258 1 273 1 l26 1 -1 117 -2 118 -418 0 c-230 0 -420 -2 -423 -4z"/>
<path d="M14214 8401 c-3 -3 -10 -7 -15 -7 -5 -1 -13 -2 -18 -3 -22 -3 -72
-61 -86 -99 -39 -113 34 -221 155 -230 46 -3 66 0 97 17 53 30 84 79 88 138 4
76 -28 139 -90 170 -30 16 -119 25 -131 14z"/>
<path d="M9727 7708 c-41 -31 -18 -96 35 -102 32 -4 60 23 65 59 6 43 -61 71
-100 43z"/>
<path d="M10993 7701 c-24 -29 -23 -60 4 -81 24 -19 32 -19 70 -6 29 9 41 61
19 85 -22 24 -72 26 -93 2z"/>
<path d="M6645 7704 c-5 -1 -21 -5 -35 -8 l-25 -5 1 -273 c1 -150 2 -278 3
-284 1 -5 22 -10 48 -9 l48 1 0 269 c1 149 -1 278 -3 287 -4 17 -20 27 -37 22z"/>
<path d="M5559 7696 c-5 -4 -5 -566 0 -567 3 -1 25 -2 49 -4 l42 -2 1 74 c0
40 1 97 1 126 1 90 48 139 126 131 38 -4 77 -34 81 -62 1 -9 3 -73 4 -142 l2
-125 49 0 49 0 -1 125 c0 132 -6 180 -24 214 -11 20 -55 60 -70 62 -5 1 -9 2
-10 4 -18 13 -113 14 -138 0 -10 -5 -20 -7 -22 -4 -3 2 -11 -2 -18 -11 -22
-27 -32 -16 -30 33 1 26 1 70 1 99 l-1 52 -45 -1 c-25 0 -46 -1 -46 -2z"/>
<path d="M8159 7682 c-1 -9 -2 -26 -3 -37 0 -11 2 -27 6 -36 4 -9 5 -19 2 -22
-9 -9 -10 -147 -1 -147 4 0 4 -8 0 -17 -7 -15 -9 -148 -3 -178 1 -5 1 -14 0
-20 -1 -5 -3 -30 -4 -55 l-1 -45 50 -1 51 -1 -1 286 0 286 -47 2 c-39 1 -48
-2 -49 -15z"/>
<path d="M11211 7414 c-1 -156 2 -285 6 -285 32 -6 83 -4 84 3 1 4 2 12 3 17
2 14 16 26 16 14 0 -18 74 -45 120 -43 98 3 143 30 187 110 25 45 29 133 8
182 -8 21 -15 41 -14 44 1 13 -81 65 -123 77 -53 16 -121 6 -160 -23 l-28 -21
0 104 0 104 -49 0 -49 1 -1 -284z m290 23 c14 -10 31 -29 37 -43 26 -55 4
-156 -37 -169 -12 -3 -21 -10 -21 -14 0 -6 -49 -7 -96 -2 -7 0 -26 15 -43 33
-27 27 -31 39 -31 82 1 59 15 90 54 115 34 23 101 22 137 -2z"/>
<path d="M4634 7646 c3 -12 14 -47 25 -78 11 -32 17 -58 14 -58 -3 0 -1 -6 4
-12 9 -12 79 -214 88 -254 2 -11 12 -41 22 -69 19 -49 19 -49 66 -51 47 -1 76
13 78 39 1 21 7 41 29 97 12 30 23 60 24 65 11 43 31 102 37 110 4 6 10 27 14
48 7 34 9 36 21 20 7 -10 14 -27 14 -38 0 -12 5 -26 12 -33 7 -7 9 -12 6 -12
-10 0 91 -283 104 -291 7 -4 28 -6 46 -4 17 1 32 -2 32 -7 0 -28 29 28 54 107
16 50 32 94 35 100 3 5 6 16 7 25 1 8 23 76 49 150 62 180 61 166 8 166 -43 1
-46 -1 -60 -35 -9 -20 -17 -43 -18 -51 -2 -8 -4 -16 -5 -17 -2 -2 -3 -7 -4
-12 0 -5 -4 -13 -8 -17 -5 -4 -8 -18 -8 -31 0 -13 -4 -23 -10 -23 -6 0 -9 -3
-8 -7 4 -12 -62 -217 -67 -211 -4 4 -56 159 -60 178 -2 8 -4 16 -5 18 -2 1 -3
5 -5 10 -2 7 -4 12 -21 57 -4 11 -8 22 -8 25 -4 20 -31 97 -38 106 -5 7 -27
11 -49 11 -32 -1 -43 -6 -49 -21 -12 -30 -23 -60 -26 -71 -1 -5 -14 -44 -29
-85 -14 -41 -27 -79 -28 -85 -8 -31 -51 -144 -54 -141 -2 2 -6 16 -9 32 -3 16
-9 33 -13 39 -8 10 -24 59 -26 80 -1 8 -14 46 -43 125 -6 18 -6 15 -20 65 -17
57 -21 60 -74 61 -43 1 -47 -1 -44 -20z"/>
<path d="M9088 7651 c-3 -13 -2 -502 1 -522 1 -3 72 -5 159 -4 188 2 220 11
300 85 26 23 59 84 51 93 -2 2 1 10 8 18 19 23 10 147 -15 194 -39 76 -98 121
-182 141 -14 3 -91 7 -172 8 -126 2 -147 0 -150 -13z m348 -103 c55 -35 82
-91 79 -162 -6 -109 -66 -166 -182 -173 -38 -2 -78 -5 -90 -7 -13 -2 -23 1
-23 7 0 5 -7 4 -15 -3 -13 -11 -15 -3 -16 66 -1 73 0 209 1 278 l0 28 103 -4
c89 -3 107 -7 143 -30z"/>
<path d="M10357 7623 c-2 -5 -4 -23 -6 -42 -2 -45 -8 -52 -37 -47 -13 3 -25 2
-25 -2 -11 -68 -7 -75 44 -75 9 0 17 -5 18 -11 0 -6 0 -58 0 -116 0 -136 18
-180 82 -200 54 -17 85 -17 123 0 29 13 30 15 21 46 -10 32 -25 38 -52 23 -5
-4 -24 0 -41 7 l-32 13 -1 107 c-1 59 -4 111 -6 115 -7 10 15 15 67 15 48 -1
58 9 48 49 -1 6 -3 15 -3 21 0 6 -16 10 -36 8 -67 -5 -76 2 -73 51 l4 45 -45
0 c-25 0 -48 -3 -50 -7z"/>
<path d="M12280 7596 c4 -62 2 -65 -32 -63 -29 2 -33 -1 -35 -23 -3 -43 5 -58
31 -53 13 3 27 0 31 -7 4 -6 7 -59 7 -118 1 -137 14 -174 70 -197 22 -9 43
-14 46 -11 2 3 13 1 23 -4 12 -7 20 -7 24 0 4 6 10 8 15 5 5 -3 21 0 34 7 23
12 24 15 11 46 -13 31 -16 32 -53 26 -61 -10 -72 9 -73 119 -1 95 0 119 7 126
2 3 23 6 47 7 23 1 46 3 50 3 5 1 7 18 5 38 l-3 37 -50 1 -50 0 -3 47 -3 46
-50 -1 c-49 -1 -50 -1 -49 -31z"/>
<path d="M6279 7546 c-2 -2 -23 -6 -46 -10 -24 -3 -56 -12 -72 -20 -38 -20
-85 -78 -98 -121 -23 -74 5 -180 59 -223 34 -29 113 -58 148 -55 55 4 96 16
121 34 15 10 31 19 36 19 10 0 38 42 35 53 -1 4 2 7 7 7 24 0 30 133 9 185
-23 57 -106 124 -148 120 -8 -1 -22 2 -31 6 -9 5 -18 7 -20 5z m84 -126 c26
-30 30 -43 30 -106 -1 -64 -58 -114 -123 -109 -19 2 -36 3 -37 4 -2 0 -5 0 -7
-1 -2 -2 -14 6 -26 17 -61 55 -63 154 -3 207 43 38 126 32 166 -12z"/>
<path d="M7438 7545 c-2 -2 -19 -5 -38 -8 -73 -9 -127 -44 -135 -84 -2 -10 -4
-19 -5 -20 -4 -6 -1 -50 5 -69 3 -11 21 -29 38 -39 36 -22 31 -20 109 -34 72
-12 98 -26 98 -52 0 -20 -56 -53 -73 -42 -4 3 -27 6 -51 8 -23 1 -52 8 -64 14
-32 17 -48 13 -60 -14 -22 -48 -19 -52 53 -71 6 -1 21 -5 35 -7 14 -3 27 -6
30 -7 11 -4 57 -2 92 4 109 18 158 89 120 177 -11 27 -70 54 -145 66 -18 3
-36 6 -42 7 -23 4 -55 28 -55 40 0 43 83 62 159 36 45 -15 51 -15 57 -1 4 9 6
19 6 24 -1 4 3 7 8 7 17 0 11 27 -7 35 -23 9 -131 33 -135 30z"/>
<path d="M7868 7545 c-2 -1 -28 -5 -58 -8 -58 -5 -123 -27 -134 -46 -4 -6 -2
-11 3 -11 6 0 11 -7 11 -16 0 -8 6 -22 14 -29 11 -12 17 -11 37 3 17 12 45 17
91 17 61 0 69 -3 85 -25 10 -14 19 -34 20 -45 3 -18 -3 -20 -69 -19 -126 1
-188 -29 -203 -98 -19 -81 52 -151 150 -149 41 0 83 12 95 26 17 20 27 19 35
-4 5 -15 14 -19 48 -17 l42 1 -1 150 c-1 165 -9 197 -61 232 -26 18 -98 44
-105 38z m17 -245 c60 21 76 -35 23 -82 -42 -37 -98 -39 -133 -4 -34 34 -22
67 31 82 22 6 44 8 49 4 6 -4 19 -4 30 0z"/>
<path d="M10056 7538 c-32 -4 -64 -12 -71 -18 -6 -5 -15 -7 -18 -3 -4 3 -7 1
-7 -5 0 -6 -9 -14 -20 -17 -11 -3 -20 -15 -20 -25 0 -10 -4 -21 -9 -24 -21
-13 1 -81 37 -116 20 -19 36 -33 36 -30 1 8 144 -22 161 -34 38 -28 -15 -82
-63 -65 -16 6 -21 5 -16 -3 4 -6 3 -8 -3 -5 -5 3 -25 9 -43 12 -19 3 -40 11
-47 17 -7 6 -13 7 -13 4 0 -4 -10 -1 -22 5 -13 6 -20 8 -16 4 4 -4 1 -17 -7
-29 -8 -11 -15 -28 -15 -37 0 -15 9 -20 63 -34 4 -2 8 -3 10 -5 3 -3 69 -11
97 -12 37 -1 92 11 107 24 7 6 13 7 13 2 0 -11 59 55 61 67 12 82 -18 124
-106 145 -27 7 -63 15 -90 20 -75 13 -67 77 10 85 36 4 125 -13 125 -23 0 -6
9 -3 20 7 11 10 17 21 15 25 -3 4 2 13 11 21 13 11 11 14 -15 25 -17 7 -44 15
-60 17 -16 3 -33 7 -38 9 -4 2 -34 1 -67 -4z"/>
<path d="M12745 7540 c-11 -4 -23 -6 -27 -3 -9 5 -85 -34 -109 -56 -35 -33
-57 -92 -57 -155 1 -107 59 -177 168 -201 116 -26 235 41 260 147 31 129 -30
232 -155 261 -33 8 -69 11 -80 7z m63 -88 c20 -2 65 -41 71 -62 23 -83 1 -150
-59 -174 -109 -43 -202 48 -165 164 19 59 64 81 153 72z"/>
<path d="M13287 7544 c-3 -3 -11 -7 -19 -8 -26 -6 -66 -25 -73 -35 -11 -19
-25 -12 -22 11 2 20 -3 23 -44 24 l-47 2 2 -206 1 -207 45 0 45 0 2 105 c2 58
5 119 8 137 7 42 56 83 100 83 34 0 44 18 37 67 -3 21 -25 37 -35 27z"/>
<path d="M13515 7539 c-72 -13 -114 -37 -130 -74 -35 -81 12 -154 110 -169
121 -18 155 -40 118 -78 -18 -17 -103 -32 -103 -17 0 3 -8 6 -17 5 -10 0 -35
5 -55 13 -42 14 -59 5 -70 -37 -5 -19 0 -25 30 -37 20 -9 46 -16 59 -17 13 -2
23 -5 23 -8 0 -3 21 -4 47 -3 27 1 48 2 48 3 0 1 13 4 30 6 79 13 131 79 112
144 -16 56 -41 74 -128 91 -93 17 -119 30 -119 56 0 12 9 27 20 33 30 16 114
14 148 -3 34 -16 39 -13 59 35 11 24 9 27 -15 37 -46 18 -125 27 -167 20z"/>
<path d="M6917 7530 c-105 -33 -169 -171 -127 -275 6 -16 12 -32 13 -35 2 -10
42 -47 72 -68 73 -49 212 -43 272 13 l23 20 -23 28 -22 29 -50 -26 c-27 -13
-52 -22 -55 -18 -3 4 -20 8 -38 9 -43 3 -77 25 -97 63 l-16 31 118 -2 c65 0
139 0 166 0 l48 1 -6 51 c-3 28 -10 61 -15 74 -10 28 -82 101 -102 104 -47 8
-138 9 -161 1z m148 -90 c26 -22 48 -70 33 -71 -44 -5 -205 -4 -215 1 -20 9
22 68 59 83 36 15 97 8 123 -13z"/>
<path d="M8465 7520 c-79 -40 -118 -108 -114 -198 3 -65 26 -114 71 -152 17
-14 31 -23 32 -21 0 2 12 -2 26 -9 32 -18 47 -21 93 -22 56 -1 123 21 148 48
l23 25 -26 25 c-25 25 -26 25 -51 9 -56 -36 -154 -24 -199 25 -40 42 -27 47
120 48 75 0 147 1 160 1 19 1 22 6 22 39 0 42 -19 101 -40 127 -7 9 -32 29
-54 44 -55 36 -151 41 -211 11z m156 -72 c25 -9 45 -36 51 -68 3 -12 -16 -15
-113 -15 -107 0 -115 1 -111 18 8 29 60 75 90 79 29 4 42 2 83 -14z"/>
<path d="M9719 7517 c-4 -72 -3 -380 1 -385 6 -9 90 -11 91 -3 4 27 3 394 -1
400 -3 3 -24 7 -47 8 -38 2 -43 0 -44 -20z"/>
<path d="M10675 7532 c-8 -5 -13 -337 -6 -397 1 -14 91 -15 92 -1 0 6 2 63 3
126 2 89 6 121 19 141 20 30 57 49 95 49 26 0 28 3 28 46 l1 46 -36 -4 c-50
-6 -62 -11 -85 -30 -26 -23 -35 -23 -29 2 3 11 1 21 -3 21 -54 7 -70 7 -79 1z"/>
<path d="M10989 7526 c-1 -17 -1 -326 0 -368 l1 -36 43 3 c23 1 44 3 47 4 3 0
5 92 5 204 l0 202 -48 1 c-27 0 -47 -4 -48 -10z"/>
<path d="M11739 7521 c-4 -77 4 -263 12 -291 17 -61 76 -110 127 -105 12 1 22
-1 22 -5 0 -18 83 4 122 31 26 19 27 19 30 -3 3 -20 9 -23 48 -24 l45 0 -1
205 -1 206 -39 1 c-21 1 -44 -1 -49 -3 -7 -2 -11 -47 -10 -120 1 -169 -27
-215 -125 -207 -38 3 -85 46 -76 70 3 8 2 14 -2 14 -4 0 -7 55 -7 123 l0 122
-47 1 c-38 1 -48 -2 -49 -15z"/>
</g>
</svg>
